<svg xmlns="http://www.w3.org/2000/svg" width="1369.2" height="506" viewBox="0 0 362.3 133.9"><path style="line-height:normal;font-variant-ligatures:normal;font-variant-position:normal;font-variant-caps:normal;font-variant-numeric:normal;font-variant-alternates:normal;font-feature-settings:normal;text-indent:0;text-align:start;text-decoration-line:none;text-decoration-style:solid;text-decoration-color:#000;text-transform:none;text-orientation:mixed;shape-padding:0;isolation:auto;mix-blend-mode:normal" d="M288.7 0c-.6.1-.7 1-1 1.4L285 5.8 281.7.1c-.6-.5-1.2.6-.6 1l3 5.3h-32.7l3.2-5.7c.3-.8-1-1-1.1-.1l-3 5.2L247 .2c-.6-.7-1.3.5-.6 1l3 5.2h-32.8L220 .7c.2-.8-1.2-.9-1.2 0l-3 5.1-3.4-5.7c-.8-.5-1.2.9-.5 1.3l3 5H182l3.2-5.7c.3-.8-1.1-.9-1.2 0l-3 5.1-3.3-5.7c-.6-.5-1.3.6-.6 1l3 5.3h-32.8l3.3-5.7c.2-.8-1.2-.9-1.2 0l-3 5.1-3.3-5.7c-.9-.5-1.2.9-.6 1.3l3 5h-32.8l3.3-5.7c.2-.8-1-1-1.2-.1l-3 5.2-3.3-5.6c-.6-.6-1.4.4-.7.9l3 5.3H78.2L81.4.7c.3-.8-1.1-.9-1.2 0l-3 5.1L74 .1c-.9-.5-1.2.9-.5 1.3l2.9 5H43.5L46.8.7c.2-.9-1.2-.9-1.2 0l-3 5.1L39.3.2c-.6-.7-1.4.5-.7 1l3 5.2h-6.5c-.9.3-.2 1.5.6 1h6L25.1 35.9 22 30.2c-.6-.6-1.4.4-.8.9l3.1 5.3h-6.6c-.9.4 0 1.4.7 1h5.9L7.9 65.9l-3.2-5.6c-.7-.7-1.4.5-.7 1l3 5.2H.4c-.9.4 0 1.4.7 1H7l-3.3 5.7c-.2 1 1.2 1 1.2.1L8 68l16.4 28.4h-6.5c-1 .2-.3 1.5.5 1h6c-1 2-2.2 3.9-3.3 5.8-.2.8 1.2.9 1.2 0l3-5.2 16.4 28.4h-6.5c-1 .3-.2 1.5.6 1h6l-3.3 5.7c-.3 1 1.1 1 1.2.1l3-5.2c1 2 2.1 3.8 3.2 5.7.7.6 1.4-.6.7-1l-3-5.2h32.8l-3.3 5.7c-.1.9 1.2.8 1.2 0l3-5.2 3.3 5.7c.6.6 1.4-.5.7-1l-3-5.2h32.7c-1 1.9-2.2 3.7-3.3 5.6-.2.9 1.2 1 1.2.2l3-5.3 3.3 5.7c.6.6 1.4-.5.7-1l-3-5.2h32.7l-3.2 5.7c-.2.9 1.1.8 1.2 0l3-5.2c1 2 2.2 3.8 3.3 5.7.6.6 1.3-.5.6-1l-3-5.2h32.8l-3.3 5.7c-.1.9 1.1.8 1.2 0l3-5.2 3.3 5.7c.6.6 1.4-.5.7-1l-3-5.2h32.7l-3.3 5.7c0 .9 1.2.8 1.3 0l3-5.2c1 2 2.1 3.8 3.2 5.7.7.6 1.4-.5.7-1l-3-5.2h32.8l-3.3 5.6c-.3.9 1.1 1 1.2.2l3-5.3 3.3 5.7c.6.6 1.4-.5.7-1l-3-5.2H284l-3.3 5.7c-.1.9 1.2.8 1.3 0l3-5.2c1 2 2.1 3.8 3.2 5.7.6.6 1.4-.5.7-1l-3-5.2h32.7c-1 2-2.2 3.8-3.2 5.7-.1 1 1.2.8 1.2 0l3-5.2c1 2 2.2 3.8 3.3 5.7.6.6 1.3-.6.6-1l-3-5.2h6.6c.9-.3.2-1.5-.6-1.1h-6L337 98l3.3 5.7c.6.6 1.4-.5.7-1l-3-5.2h6.6c.8-.4 0-1.4-.7-1.1h-6L354.4 68l3.3 5.7c.7.6 1.4-.6.7-1l-3-5.2h6.5c1-.2.2-1.5-.5-1.1h-6l3.2-5.7c.3-.9-1.1-.9-1.2 0l-3 5.1L338 37.5h6.5c.9-.2.2-1.5-.5-1.1h-6l3.2-5.8c0-1-1.3-.6-1.3.2l-2.9 5-16.4-28.3h6.6c.9-.3.2-1.5-.6-1.1h-6L324 .7c.2-.9-1.2-.9-1.2 0l-3 5.1-3.3-5.6c-.6-.7-1.4.5-.6 1l3 5.2H286l3.3-5.7c0-.3-.2-.7-.6-.7zM188.5 7.5h26.3l-16.3 28.3L182 7.5h6.4zm-145 0h32.8L59.9 35.8 43.5 7.5zm173.2 0h32.8L233 35.8 216.7 7.5zm34.7 0H284l-16.4 28.3-16.3-28.3zm-173.2 0h32.7L94.5 35.8 78.2 7.5zm34.6 0h32.7l-16.3 28.3-16.4-28.3zm173.2 0h32.7l-16.3 28.3L286 7.5zm-138.6 0h32.8l-16.4 28.3-16.4-28.3zM42.6 8l16.3 28.4H26.2L42.6 8zm34.6 0l16.4 28.4H60.8L77.2 8zm138.6 0L232 36.4h-32.7L215.8 8zm-104 0l16.4 28.4H95.5L111.9 8zm34.7 0l16.4 28.4H130L146.5 8zm104 0l16.3 28.4H234L250.4 8zM285 8l16.3 28.4h-32.7L285 8zM181 8l16.4 28.4h-32.7L181 8zm138.6 0L336 36.4h-32.8L319.7 8zM26.2 37.5h32.7L42.6 65.8 26.2 37.5zm34.6 0h32.8L77.2 65.8 60.8 37.5zm138.6 0h32.7l-16.3 28.3-16.4-28.3zm-104 0h32.8L112 65.8 95.5 37.5zm138.6 0h32.8l-16.4 28.3L234 37.5zm-103.9 0H163l-16.4 28.3L130 37.5zm138.6 0h32.7l-16.3 28.3-16.4-28.3zm-104 0h32.8l-16.4 28.3-16.3-28.3zm138.6 0h32.8l-16.4 28.3-16.4-28.3zm-278 .5l16.3 28.4H9L25.2 38zm34.6 0l16.4 28.4H43.5L60 38zm34.6 0L111 66.4H78.2L94.5 38zm34.7 0l16.3 28.4h-32.7L129.2 38zM233 38l16.4 28.4h-32.8L233.1 38zm34.6 0l16.4 28.4h-32.7L267.7 38zm-103.9 0l16.4 28.4h-32.8L163.8 38zm138.6 0l16.3 28.4H286L302.4 38zm-104 0l16.4 28.4h-32.7L198.5 38zM337 38l16.4 28.4h-32.7L337 38zM9 67.5h32.7L25.2 95.8 9 67.5zm34.6 0h32.8L59.9 95.8 43.5 67.5zm34.7 0h32.7L94.5 95.8 78.2 67.5zm138.5 0h32.8L233 95.8l-16.4-28.3zm-103.9 0h32.7l-16.3 28.3-16.4-28.3zm138.6 0H284l-16.4 28.3-16.3-28.3zm-104 0h32.8l-16.4 28.3-16.4-28.3zm34.7 0h32.7l-16.3 28.3L182 67.5zm104 0h32.6l-16.3 28.3L286 67.5zm34.5 0h32.8L337 95.8l-16.4-28.3zm-278 .5l16.3 28.4H26.2L42.6 68zm34.6 0l16.4 28.4H60.8L77.2 68zm34.7 0l16.3 28.4H95.5L111.9 68zm34.6 0l16.4 28.4H130L146.5 68zm69.3 0L232 96.4h-32.7L215.8 68zm34.6 0l16.4 28.4H234L250.4 68zm34.7 0l16.3 28.4h-32.7L285 68zm-104 0l16.4 28.4h-32.7L181 68zm138.6 0l16.4 28.4h-32.8L319.7 68zM26.2 97.5h32.7l-16.3 28.3-16.4-28.3zm34.6 0h32.8l-16.4 28.3-16.4-28.3zm138.6 0h32.7l-16.3 28.3-16.4-28.3zm-104 0h32.8L112 125.8 95.5 97.5zm34.7 0H163l-16.4 28.3L130 97.5zm34.7 0h32.7l-16.4 28.3-16.3-28.3zm69.2 0h32.8l-16.4 28.3L234 97.5zm34.7 0h32.7l-16.3 28.3-16.4-28.3zm34.6 0h32.8l-16.4 28.3-16.4-28.3zM60 98l16.4 28.4H43.5L60 98zm34.6 0l16.4 28.4H78.2L94.5 98zm34.7 0l16.3 28.4h-32.7L129.2 98zm69.3 0l16.3 28.4h-32.7L198.5 98zm34.6 0l16.4 28.4h-32.8L233.1 98zm34.6 0l16.4 28.4h-32.7L267.7 98zm34.7 0l16.3 28.4H286L302.4 98zm-138.6 0l16.4 28.4h-32.8L163.8 98z" color="#000" font-weight="400" font-family="sans-serif" white-space="normal" overflow="visible"/></svg>